<svg xmlns="http://www.w3.org/2000/svg"  viewBox="0 0 100 100" width="500px" height="500px"><path fill="#c7ede6" d="M87.215,56.71C88.35,54.555,89,52.105,89,49.5c0-6.621-4.159-12.257-10.001-14.478 C78.999,35.015,79,35.008,79,35c0-11.598-9.402-21-21-21c-9.784,0-17.981,6.701-20.313,15.757C36.211,29.272,34.638,29,33,29 c-7.692,0-14.023,5.793-14.89,13.252C12.906,43.353,9,47.969,9,53.5C9,59.851,14.149,65,20.5,65c0.177,0,0.352-0.012,0.526-0.022 C21.022,65.153,21,65.324,21,65.5C21,76.822,30.178,86,41.5,86c6.437,0,12.175-2.972,15.934-7.614C59.612,80.611,62.64,82,66,82 c4.65,0,8.674-2.65,10.666-6.518C77.718,75.817,78.837,76,80,76c6.075,0,11-4.925,11-11C91,61.689,89.53,58.727,87.215,56.71z"/><path fill="#fdfcef" d="M40.875,35.5c0,0,3.64,0,6.125,0s4.5-2.015,4.5-4.5c0-2.333-1.782-4.229-4.055-4.455 C47.467,26.364,47.5,26.187,47.5,26c0-2.485-2.015-4.5-4.5-4.5c-1.438,0-2.703,0.686-3.527,1.736 C39.333,20.6,37.171,18.5,34.5,18.5c-2.761,0-5,2.239-5,5c0,0.446,0.077,0.87,0.187,1.282C29.045,24.005,28.086,23.5,27,23.5 c-1.781,0-3.234,1.335-3.455,3.055C23.364,26.533,23.187,26.5,23,26.5c-2.485,0-4.5,2.015-4.5,4.5s2.015,4.5,4.5,4.5s9.5,0,9.5,0 h5.375V36h3V35.5z"/><path fill="#472b29" d="M34.5,18c-3.033,0-5.5,2.467-5.5,5.5c0,0.016,0,0.031,0,0.047C28.398,23.192,27.71,23,27,23 c-1.831,0-3.411,1.261-3.858,3.005C23.095,26.002,23.048,26,23,26c-2.757,0-5,2.243-5,5s2.243,5,5,5h14.875 c0.276,0,0.5-0.224,0.5-0.5s-0.224-0.5-0.5-0.5H23c-2.206,0-4-1.794-4-4s1.794-4,4-4c0.117,0,0.23,0.017,0.343,0.032l0.141,0.019 c0.021,0.003,0.041,0.004,0.062,0.004c0.246,0,0.462-0.185,0.495-0.437C24.232,25.125,25.504,24,27,24 c0.885,0,1.723,0.401,2.301,1.1c0.098,0.118,0.241,0.182,0.386,0.182c0.078,0,0.156-0.018,0.228-0.056 c0.209-0.107,0.314-0.346,0.254-0.573C30.054,24.218,30,23.852,30,23.5c0-2.481,2.019-4.5,4.5-4.5 c2.381,0,4.347,1.872,4.474,4.263c0.011,0.208,0.15,0.387,0.349,0.45c0.05,0.016,0.101,0.024,0.152,0.024 c0.15,0,0.296-0.069,0.392-0.192C40.638,22.563,41.779,22,43,22c2.206,0,4,1.794,4,4c0,0.117-0.017,0.23-0.032,0.343 l-0.019,0.141c-0.016,0.134,0.022,0.268,0.106,0.373c0.084,0.105,0.207,0.172,0.34,0.185C49.451,27.247,51,28.949,51,31 c0,2.206-1.794,4-4,4h-6.125c-0.276,0-0.5,0.224-0.5,0.5s0.224,0.5,0.5,0.5H47c2.757,0,5-2.243,5-5 c0-2.397-1.689-4.413-4.003-4.877C47.999,26.082,48,26.041,48,26c0-2.757-2.243-5-5-5c-1.176,0-2.293,0.416-3.183,1.164 C39.219,19.76,37.055,18,34.5,18L34.5,18z"/><path fill="#472b29" d="M33,25c-1.403,0-2.609,0.999-2.913,2.341C29.72,27.119,29.301,27,28.875,27 c-1.202,0-2.198,0.897-2.353,2.068C26.319,29.022,26.126,29,25.937,29c-1.529,0-2.811,1.2-2.918,2.732 C23.01,31.87,23.114,31.99,23.251,32c0.006,0,0.012,0,0.018,0c0.13,0,0.24-0.101,0.249-0.232 c0.089-1.271,1.151-2.268,2.419-2.268c0.229,0,0.47,0.042,0.738,0.127c0.022,0.007,0.045,0.01,0.067,0.01 c0.055,0,0.11-0.02,0.156-0.054C26.962,29.537,27,29.455,27,29.375c0-1.034,0.841-1.875,1.875-1.875 c0.447,0,0.885,0.168,1.231,0.473c0.047,0.041,0.106,0.063,0.165,0.063c0.032,0,0.063-0.006,0.093-0.019 c0.088-0.035,0.148-0.117,0.155-0.212C30.623,26.512,31.712,25.5,33,25.5c0.208,0,0.425,0.034,0.682,0.107 c0.023,0.007,0.047,0.01,0.07,0.01c0.109,0,0.207-0.073,0.239-0.182c0.038-0.133-0.039-0.271-0.172-0.309 C33.517,25.04,33.256,25,33,25L33,25z"/><path fill="#fff" d="M71.405,22H61.5c-0.276,0-0.5-0.224-0.5-0.5s0.224-0.5,0.5-0.5h9.905c0.276,0,0.5,0.224,0.5,0.5 S71.682,22,71.405,22z"/><path fill="#fff" d="M74.5,22h-1c-0.276,0-0.5-0.224-0.5-0.5s0.224-0.5,0.5-0.5h1c0.276,0,0.5,0.224,0.5,0.5 S74.777,22,74.5,22z"/><path fill="#fff" d="M79.491,24H70.5c-0.276,0-0.5-0.224-0.5-0.5s0.224-0.5,0.5-0.5h8.991c0.276,0,0.5,0.224,0.5,0.5 S79.767,24,79.491,24z"/><path fill="#fff" d="M68.5,24h-1c-0.276,0-0.5-0.224-0.5-0.5s0.224-0.5,0.5-0.5h1c0.276,0,0.5,0.224,0.5,0.5 S68.777,24,68.5,24z"/><path fill="#fff" d="M65.5,24h-2c-0.276,0-0.5-0.224-0.5-0.5s0.224-0.5,0.5-0.5h2c0.276,0,0.5,0.224,0.5,0.5 S65.777,24,65.5,24z"/><path fill="#fff" d="M71.5,26h-2c-0.276,0-0.5-0.224-0.5-0.5s0.224-0.5,0.5-0.5h2c0.276,0,0.5,0.224,0.5,0.5 S71.776,26,71.5,26z"/><path fill="#fff" d="M74.5,17c-0.177,0-0.823,0-1,0c-0.276,0-0.5,0.224-0.5,0.5c0,0.276,0.224,0.5,0.5,0.5 c0.177,0,0.823,0,1,0c0.276,0,0.5-0.224,0.5-0.5C75,17.224,74.776,17,74.5,17z"/><path fill="#fff" d="M74.5,19c-0.177,0-4.823,0-5,0c-0.276,0-0.5,0.224-0.5,0.5c0,0.276,0.224,0.5,0.5,0.5 c0.177,0,4.823,0,5,0c0.276,0,0.5-0.224,0.5-0.5C75,19.224,74.776,19,74.5,19z"/><path fill="#fff" d="M79.5,21c-0.177,0-2.823,0-3,0c-0.276,0-0.5,0.224-0.5,0.5c0,0.276,0.224,0.5,0.5,0.5 c0.177,0,2.823,0,3,0c0.276,0,0.5-0.224,0.5-0.5C80,21.224,79.776,21,79.5,21z"/><path fill="#fff" d="M16.5,59h-10C6.224,59,6,58.776,6,58.5S6.224,58,6.5,58h10c0.276,0,0.5,0.224,0.5,0.5 S16.776,59,16.5,59z"/><path fill="#fff" d="M20.5,59h-2c-0.276,0-0.5-0.224-0.5-0.5s0.224-0.5,0.5-0.5h2c0.276,0,0.5,0.224,0.5,0.5 S20.776,59,20.5,59z"/><path fill="#fff" d="M25.5,61h-10c-0.276,0-0.5-0.224-0.5-0.5s0.224-0.5,0.5-0.5h10c0.276,0,0.5,0.224,0.5,0.5 S25.777,61,25.5,61z"/><path fill="#fff" d="M13.5,61h-1c-0.276,0-0.5-0.224-0.5-0.5s0.224-0.5,0.5-0.5h1c0.276,0,0.5,0.224,0.5,0.5 S13.776,61,13.5,61z"/><path fill="#fff" d="M10.47,61H8.5C8.224,61,8,60.776,8,60.5S8.224,60,8.5,60h1.97c0.276,0,0.5,0.224,0.5,0.5 S10.746,61,10.47,61z"/><path fill="#fff" d="M19.5,57h-5c-0.276,0-0.5-0.224-0.5-0.5s0.224-0.5,0.5-0.5h5c0.276,0,0.5,0.224,0.5,0.5 S19.777,57,19.5,57z"/><path fill="#fff" d="M16.5,63h-2c-0.276,0-0.5-0.224-0.5-0.5s0.224-0.5,0.5-0.5h2c0.276,0,0.5,0.224,0.5,0.5 S16.776,63,16.5,63z"/><path fill="#fff" d="M68.625,75h-31.25C33.854,75,31,72.146,31,68.625v-31.25C31,33.854,33.854,31,37.375,31h31.25 C72.146,31,75,33.854,75,37.375v31.25C75,72.146,72.146,75,68.625,75z"/><path fill="#ffce00" d="M75,43v-5.279C75,34.009,71.882,31,68.035,31H37.965C34.118,31,31,34.009,31,37.721V43H75z"/><path fill="#472b29" d="M36.5,43H31c-0.276,0-0.5-0.224-0.5-0.5S30.724,42,31,42h5.5c0.276,0,0.5,0.224,0.5,0.5 S36.776,43,36.5,43z"/><path fill="#472b29" d="M75,43H39.25c-0.276,0-0.5-0.224-0.5-0.5s0.224-0.5,0.5-0.5H75c0.276,0,0.5,0.224,0.5,0.5 S75.276,43,75,43z"/><path fill="#472b29" d="M62.5,54.75H31c-0.138,0-0.25-0.112-0.25-0.25s0.112-0.25,0.25-0.25h31.5 c0.138,0,0.25,0.112,0.25,0.25S62.638,54.75,62.5,54.75z"/><path fill="#472b29" d="M75,54.75H65c-0.138,0-0.25-0.112-0.25-0.25s0.112-0.25,0.25-0.25h10c0.138,0,0.25,0.112,0.25,0.25 S75.138,54.75,75,54.75z"/><path fill="#472b29" d="M75,64.75H51c-0.138,0-0.25-0.112-0.25-0.25s0.112-0.25,0.25-0.25h24c0.138,0,0.25,0.112,0.25,0.25 S75.138,64.75,75,64.75z"/><path fill="#472b29" d="M48,64.75H31c-0.138,0-0.25-0.112-0.25-0.25s0.112-0.25,0.25-0.25h17c0.138,0,0.25,0.112,0.25,0.25 S48.138,64.75,48,64.75z"/><circle cx="36.5" cy="45.5" r=".5" fill="#472b29"/><circle cx="39.5" cy="45.5" r=".5" fill="#472b29"/><circle cx="42.5" cy="45.5" r=".5" fill="#472b29"/><g><circle cx="45.5" cy="45.5" r=".5" fill="#472b29"/></g><g><circle cx="48.5" cy="45.5" r=".5" fill="#472b29"/></g><g><circle cx="51.5" cy="45.5" r=".5" fill="#472b29"/></g><g><circle cx="54.5" cy="45.5" r=".5" fill="#472b29"/></g><g><circle cx="57.5" cy="45.5" r=".5" fill="#472b29"/></g><g><circle cx="60.5" cy="45.5" r=".5" fill="#472b29"/></g><g><circle cx="63.5" cy="45.5" r=".5" fill="#472b29"/></g><g><circle cx="66.5" cy="45.5" r=".5" fill="#472b29"/></g><g><circle cx="69.5" cy="45.5" r=".5" fill="#472b29"/></g><g><path fill="#472b29" d="M68.625,75.7h-31.25c-3.901,0-7.075-3.174-7.075-7.075v-31.25c0-3.901,3.174-7.075,7.075-7.075 h31.25c3.901,0,7.075,3.174,7.075,7.075v31.25C75.7,72.526,72.526,75.7,68.625,75.7z M37.375,31.7 c-3.129,0-5.675,2.546-5.675,5.675v31.25c0,3.129,2.545,5.675,5.675,5.675h31.25c3.129,0,5.675-2.546,5.675-5.675v-31.25 c0-3.129-2.545-5.675-5.675-5.675H37.375z"/></g><g><path fill="#472b29" d="M61.5,34.5H55c-0.276,0-0.5-0.224-0.5-0.5s0.224-0.5,0.5-0.5h6.5c0.276,0,0.5,0.224,0.5,0.5 S61.776,34.5,61.5,34.5z"/></g><g><path fill="#472b29" d="M34,40c-0.276,0-0.5-0.224-0.5-0.5v-2.008c0-2.201,1.942-3.992,4.33-3.992h13.735 c0.276,0,0.5,0.224,0.5,0.5s-0.224,0.5-0.5,0.5H37.83c-1.836,0-3.33,1.342-3.33,2.992V39.5C34.5,39.776,34.276,40,34,40z"/></g><g><path fill="#472b29" d="M72,40c-0.276,0-0.5-0.224-0.5-0.5v-2.008c0-1.65-1.171-2.992-2.611-2.992h-3.312 c-0.276,0-0.5-0.224-0.5-0.5s0.224-0.5,0.5-0.5h3.312c1.991,0,3.611,1.791,3.611,3.992V39.5C72.5,39.776,72.276,40,72,40z"/></g><g><path fill="#472b29" d="M47.625,72.5h-9.849c-2.358,0-4.276-1.791-4.276-3.992V45.5c0-0.276,0.224-0.5,0.5-0.5 s0.5,0.224,0.5,0.5v23.008c0,1.65,1.47,2.992,3.276,2.992h9.849c0.276,0,0.5,0.224,0.5,0.5S47.901,72.5,47.625,72.5z"/></g><g><path fill="#472b29" d="M68.224,72.5H50.625c-0.276,0-0.5-0.224-0.5-0.5s0.224-0.5,0.5-0.5h17.599 c1.806,0,3.276-1.342,3.276-2.992V45.5c0-0.276,0.224-0.5,0.5-0.5s0.5,0.224,0.5,0.5v23.008C72.5,70.709,70.582,72.5,68.224,72.5z"/></g><g><path fill="#fdfcef" d="M85.5,68.5c0,0,1.567,0,3.5,0s3.5-1.567,3.5-3.5c0-1.781-1.335-3.234-3.055-3.455 C89.473,61.366,89.5,61.187,89.5,61c0-1.933-1.567-3.5-3.5-3.5c-1.032,0-1.95,0.455-2.59,1.165 c-0.384-1.808-1.987-3.165-3.91-3.165c-2.209,0-4,1.791-4,4c0,0.191,0.03,0.374,0.056,0.558C75.128,59.714,74.592,59.5,74,59.5 c-1.228,0-2.245,0.887-2.455,2.055C71.366,61.527,71.187,61.5,71,61.5c-1.933,0-3.5,1.567-3.5,3.5s1.567,3.5,3.5,3.5s7.5,0,7.5,0 V69h7V68.5z"/><path fill="#472b29" d="M87.25,64C87.112,64,87,63.888,87,63.75c0-1.223,0.995-2.218,2.218-2.218 c0.034,0.009,0.737-0.001,1.244,0.136c0.133,0.036,0.212,0.173,0.176,0.306c-0.036,0.134-0.173,0.213-0.306,0.176 c-0.444-0.12-1.1-0.12-1.113-0.118c-0.948,0-1.719,0.771-1.719,1.718C87.5,63.888,87.388,64,87.25,64z"/><circle cx="80.5" cy="68.5" r=".5" fill="#472b29"/><path fill="#472b29" d="M89,69h-3.5c-0.276,0-0.5-0.224-0.5-0.5s0.224-0.5,0.5-0.5H89c1.654,0,3-1.346,3-3 c0-1.496-1.125-2.768-2.618-2.959c-0.134-0.018-0.255-0.088-0.336-0.196s-0.115-0.244-0.094-0.377C88.975,61.314,89,61.16,89,61 c0-1.654-1.346-3-3-3c-0.85,0-1.638,0.355-2.219,1c-0.125,0.139-0.321,0.198-0.5,0.148c-0.182-0.049-0.321-0.195-0.36-0.379 C82.58,57.165,81.141,56,79.5,56c-1.93,0-3.5,1.57-3.5,3.5c0,0.143,0.021,0.28,0.041,0.418c0.029,0.203-0.063,0.438-0.242,0.54 c-0.179,0.102-0.396,0.118-0.556-0.01C74.878,60.155,74.449,60,74,60c-0.966,0-1.792,0.691-1.963,1.644 c-0.048,0.267-0.296,0.446-0.569,0.405C71.314,62.025,71.16,62,71,62c-1.654,0-3,1.346-3,3s1.346,3,3,3h7.5 c0.276,0,0.5,0.224,0.5,0.5S78.776,69,78.5,69H71c-2.206,0-4-1.794-4-4s1.794-4,4-4c0.059,0,0.116,0.002,0.174,0.006 C71.588,59.82,72.711,59,74,59c0.349,0,0.689,0.061,1.011,0.18C75.176,56.847,77.126,55,79.5,55c1.831,0,3.466,1.127,4.153,2.774 C84.333,57.276,85.155,57,86,57c2.206,0,4,1.794,4,4c0,0.048-0.001,0.095-0.004,0.142C91.739,61.59,93,63.169,93,65 C93,67.206,91.206,69,89,69z"/><path fill="#472b29" d="M83.5,68c-0.159,0-0.841,0-1,0c-0.276,0-0.5,0.224-0.5,0.5c0,0.276,0.224,0.5,0.5,0.5 c0.159,0,0.841,0,1,0c0.276,0,0.5-0.224,0.5-0.5C84,68.224,83.776,68,83.5,68z"/></g></svg>